# xmcd
#
# Track frame offsets: 
#        150
#        18566
#        37756
#        56453
#        75870
#        94127
#        118435
#        137781
#        160135
#        181958
#        201027
#
# Disc length: 2862 seconds
#
# Revision: 0
# Processed by: cddbd v1.5.1PL0 Copyright (c) Steve Scherf et al.
# Submitted via: ExactAudioCopy v0.95b2
#
DISCID=870b2c0b
DTITLE=Smallclub - Nip Nop
DYEAR=2003
DGENRE=Blues
TTITLE0=Riding On The Bomb
TTITLE1=Hendrix
TTITLE2=Circles
TTITLE3=Spice
TTITLE4=City Talk
TTITLE5=Money
TTITLE6=War
TTITLE7=Tuesday Nites
TTITLE8=Janis In Love
TTITLE9=AYA
TTITLE10=Nip Nop
EXTD=
EXTT0=
EXTT1=
EXTT2=
EXTT3=
EXTT4=
EXTT5=
EXTT6=
EXTT7=
EXTT8=
EXTT9=
EXTT10=
PLAYORDER=
